<svg xmlns="http://www.w3.org/2000/svg" xmlns:xlink="http://www.w3.org/1999/xlink" width="56" height="135" viewBox="0 0 56 135">
  <defs>
    <clipPath id="clip-path">
      <rect width="8" height="71" fill="none"/>
    </clipPath>
    <clipPath id="clip-path-2">
      <rect width="8" height="103" fill="none"/>
    </clipPath>
    <clipPath id="clip-path-3">
      <rect width="8" height="119" fill="none"/>
    </clipPath>
    <clipPath id="clip-path-4">
      <rect width="8" height="135" fill="none"/>
    </clipPath>
  </defs>
  <g id="Group_198" data-name="Group 198" transform="translate(-416 -493)">
    <g id="Repeat_Grid_3" data-name="Repeat Grid 3" transform="translate(416 557)" opacity="0.39" clip-path="url(#clip-path)">
      <g transform="translate(-400 -369)">
        <path id="Polygon_1" data-name="Polygon 1" d="M4,0,8,7H0Z" transform="translate(400 369)" fill="#fff"/>
      </g>
      <g transform="translate(-400 -353)">
        <path id="Polygon_1-2" data-name="Polygon 1" d="M4,0,8,7H0Z" transform="translate(400 369)" fill="#fff"/>
      </g>
      <g transform="translate(-400 -337)">
        <path id="Polygon_1-3" data-name="Polygon 1" d="M4,0,8,7H0Z" transform="translate(400 369)" fill="#fff"/>
      </g>
      <g transform="translate(-400 -321)">
        <path id="Polygon_1-4" data-name="Polygon 1" d="M4,0,8,7H0Z" transform="translate(400 369)" fill="#fff"/>
      </g>
      <g transform="translate(-400 -305)">
        <path id="Polygon_1-5" data-name="Polygon 1" d="M4,0,8,7H0Z" transform="translate(400 369)" fill="#fff"/>
      </g>
    </g>
    <g id="Repeat_Grid_4" data-name="Repeat Grid 4" transform="translate(432 525)" opacity="0.39" clip-path="url(#clip-path-2)">
      <g transform="translate(-400 -369)">
        <path id="Polygon_1-6" data-name="Polygon 1" d="M4,0,8,7H0Z" transform="translate(400 369)" fill="#fff"/>
      </g>
      <g transform="translate(-400 -353)">
        <path id="Polygon_1-7" data-name="Polygon 1" d="M4,0,8,7H0Z" transform="translate(400 369)" fill="#fff"/>
      </g>
      <g transform="translate(-400 -337)">
        <path id="Polygon_1-8" data-name="Polygon 1" d="M4,0,8,7H0Z" transform="translate(400 369)" fill="#fff"/>
      </g>
      <g transform="translate(-400 -321)">
        <path id="Polygon_1-9" data-name="Polygon 1" d="M4,0,8,7H0Z" transform="translate(400 369)" fill="#fff"/>
      </g>
      <g transform="translate(-400 -305)">
        <path id="Polygon_1-10" data-name="Polygon 1" d="M4,0,8,7H0Z" transform="translate(400 369)" fill="#fff"/>
      </g>
      <g transform="translate(-400 -289)">
        <path id="Polygon_1-11" data-name="Polygon 1" d="M4,0,8,7H0Z" transform="translate(400 369)" fill="#fff"/>
      </g>
      <g transform="translate(-400 -273)">
        <path id="Polygon_1-12" data-name="Polygon 1" d="M4,0,8,7H0Z" transform="translate(400 369)" fill="#fff"/>
      </g>
    </g>
    <g id="Repeat_Grid_6" data-name="Repeat Grid 6" transform="translate(464 509)" opacity="0.39" clip-path="url(#clip-path-3)">
      <g transform="translate(-400 -369)">
        <path id="Polygon_1-13" data-name="Polygon 1" d="M4,0,8,7H0Z" transform="translate(400 369)" fill="#fff"/>
      </g>
      <g transform="translate(-400 -353)">
        <path id="Polygon_1-14" data-name="Polygon 1" d="M4,0,8,7H0Z" transform="translate(400 369)" fill="#fff"/>
      </g>
      <g transform="translate(-400 -337)">
        <path id="Polygon_1-15" data-name="Polygon 1" d="M4,0,8,7H0Z" transform="translate(400 369)" fill="#fff"/>
      </g>
      <g transform="translate(-400 -321)">
        <path id="Polygon_1-16" data-name="Polygon 1" d="M4,0,8,7H0Z" transform="translate(400 369)" fill="#fff"/>
      </g>
      <g transform="translate(-400 -305)">
        <path id="Polygon_1-17" data-name="Polygon 1" d="M4,0,8,7H0Z" transform="translate(400 369)" fill="#fff"/>
      </g>
      <g transform="translate(-400 -289)">
        <path id="Polygon_1-18" data-name="Polygon 1" d="M4,0,8,7H0Z" transform="translate(400 369)" fill="#fff"/>
      </g>
      <g transform="translate(-400 -273)">
        <path id="Polygon_1-19" data-name="Polygon 1" d="M4,0,8,7H0Z" transform="translate(400 369)" fill="#fff"/>
      </g>
      <g transform="translate(-400 -257)">
        <path id="Polygon_1-20" data-name="Polygon 1" d="M4,0,8,7H0Z" transform="translate(400 369)" fill="#fff"/>
      </g>
    </g>
    <g id="Repeat_Grid_5" data-name="Repeat Grid 5" transform="translate(448 493)" opacity="0.39" clip-path="url(#clip-path-4)">
      <g transform="translate(-400 -369)">
        <path id="Polygon_1-21" data-name="Polygon 1" d="M4,0,8,7H0Z" transform="translate(400 369)" fill="#fff"/>
      </g>
      <g transform="translate(-400 -353)">
        <path id="Polygon_1-22" data-name="Polygon 1" d="M4,0,8,7H0Z" transform="translate(400 369)" fill="#fff"/>
      </g>
      <g transform="translate(-400 -337)">
        <path id="Polygon_1-23" data-name="Polygon 1" d="M4,0,8,7H0Z" transform="translate(400 369)" fill="#fff"/>
      </g>
      <g transform="translate(-400 -321)">
        <path id="Polygon_1-24" data-name="Polygon 1" d="M4,0,8,7H0Z" transform="translate(400 369)" fill="#fff"/>
      </g>
      <g transform="translate(-400 -305)">
        <path id="Polygon_1-25" data-name="Polygon 1" d="M4,0,8,7H0Z" transform="translate(400 369)" fill="#fff"/>
      </g>
      <g transform="translate(-400 -289)">
        <path id="Polygon_1-26" data-name="Polygon 1" d="M4,0,8,7H0Z" transform="translate(400 369)" fill="#fff"/>
      </g>
      <g transform="translate(-400 -273)">
        <path id="Polygon_1-27" data-name="Polygon 1" d="M4,0,8,7H0Z" transform="translate(400 369)" fill="#fff"/>
      </g>
      <g transform="translate(-400 -257)">
        <path id="Polygon_1-28" data-name="Polygon 1" d="M4,0,8,7H0Z" transform="translate(400 369)" fill="#fff"/>
      </g>
      <g transform="translate(-400 -241)">
        <path id="Polygon_1-29" data-name="Polygon 1" d="M4,0,8,7H0Z" transform="translate(400 369)" fill="#fff"/>
      </g>
    </g>
  </g>
</svg>
